# xmcd
#
# Track frame offsets:
#	150
#	18833
#	35015
#	48494
#	63391
#	80090
#	87590
#	102408
#	121819
#	143511
#	156997
#	170943
#	185521
#	200196
#	219158
#	235974
#	250595
#
# Disc length: 3571 seconds
#
# Revision: 1
# Processed by: cddbd v1.4PL0 Copyright (c) Steve Scherf et al.
# Submitted via: audiograbber 1.81.03
#
DISCID=f30df111
DTITLE=Antigue - Opa Hits
DYEAR=1900
DGENRE=
TTITLE0=Westoriental trip
TTITLE1=Opa Opa
TTITLE2=(I would) die for you - Greek
TTITLE3=Dinata dinata
TTITLE4=Ligo ligo
TTITLE5=Mystique Antique
TTITLE6=Se thello
TTITLE7=Filla me
TTITLE8=Why (Mellan)
TTITLE9=(I would) Die for you - english
TTITLE10=I zoi ine tora
TTITLE11=Mera meti mera
TTITLE12=I agapi ine zali
TTITLE13=Mou lipis
TTITLE14=Kalimera
TTITLE15=Ellatho
TTITLE16=Athena
EXTD=
EXTT0=
EXTT1=
EXTT2=
EXTT3=
EXTT4=
EXTT5=
EXTT6=
EXTT7=
EXTT8=
EXTT9=
EXTT10=
EXTT11=
EXTT12=
EXTT13=
EXTT14=
EXTT15=
EXTT16=
PLAYORDER=
